PathFileType	4	(X/Y/Z)	 s01c0101.trc
DataRate	CameraRate	NumFrames	NumMarkers	Units	OrigDataRate	OrigDataStartFrame	OrigNumFrames
200	200	7	47	mm	200	1	2000
Frame#	Time	racr			lacr			c7			jug			rlel			rdr			llel			ldr			s2			lic			ric			lasi			rasi			rpsi			lpsi			rgt			lgt			rth1			rth2			rth3			rth4			rlfc			rsh1			rsh2			rsh3			rsh4			rlmal			rmmal			rcal			rtoe			rmt5			lth1			lth2			lth4			lth3			llfc			lsh1			lsh2			lsh3			lsh4			llmal			lcal			ltoe			lmt5			SBIKE			LBIKE			RBIKE			
		X1	Y1	Z1	X2	Y2	Z2	X3	Y3	Z3	X4	Y4	Z4	X5	Y5	Z5	X6	Y6	Z6	X7	Y7	Z7	X8	Y8	Z8	X9	Y9	Z9	X10	Y10	Z10	X11	Y11	Z11	X12	Y12	Z12	X13	Y13	Z13	X14	Y14	Z14	X15	Y15	Z15	X16	Y16	Z16	X17	Y17	Z17	X18	Y18	Z18	X19	Y19	Z19	X20	Y20	Z20	X21	Y21	Z21	X22	Y22	Z22	X23	Y23	Z23	X24	Y24	Z24	X25	Y25	Z25	X26	Y26	Z26	X27	Y27	Z27	X28	Y28	Z28	X29	Y29	Z29	X30	Y30	Z30	X31	Y31	Z31	X32	Y32	Z32	X33	Y33	Z33	X34	Y34	Z34	X35	Y35	Z35	X36	Y36	Z36	X37	Y37	Z37	X38	Y38	Z38	X39	Y39	Z39	X40	Y40	Z40	X41	Y41	Z41	X42	Y42	Z42	X43	Y43	Z43	X44	Y44	Z44	X45	Y45	Z45	X46	Y46	Z46	X47	Y47	Z47	
1	0.0050	501.408142	1350.115562	-123.009716	504.065123	1351.833940	-413.722841	438.688695	1396.683694	-260.451519	466.233586	1239.765476	-263.315422	586.267174	1078.717286	-45.967981	724.472738	852.971287	-71.518921	588.228311	1077.547991	-471.178251	724.527050	862.128407	-425.422595	-72.405848	1155.699201	-244.249303	103.379191	1152.287929	-416.699628	95.326428	1138.592527	-95.928434	93.484507	1099.739249	-395.068971	109.084198	1086.154106	-119.206277	-38.505182	1191.408355	-191.631360	-41.834379	1194.656444	-298.483505	15.552927	1025.285520	-61.320264	28.240528	1050.626313	-455.766171	78.196085	898.711637	-49.792935	121.872727	828.841565	-57.351340	163.284624	749.846514	-75.620498	169.171910	855.959237	-70.770018	194.098322	647.019033	-101.026280	132.813123	544.600932	-67.642814	109.153421	463.116073	-69.590728	73.865674	379.590145	-83.034027	154.973599	448.494017	-106.062318	27.376603	259.601561	-101.613994	71.959435	273.556444	-177.428998	-15.980984	227.016040	-158.632567	252.606469	197.823342	-131.251344	144.140546	170.824162	-67.414879	127.536254	980.492418	-464.150682	214.574019	977.599578	-465.595324	218.948131	1031.788942	-454.960615	299.714065	966.018174	-457.332924	400.608905	919.188920	-438.894367	326.310670	831.297427	-456.101206	285.812710	755.248684	-444.765554	244.705900	682.158958	-424.880544	337.709120	732.392979	-419.116238	189.069571	568.284695	-400.705612	137.083184	531.319163	-358.003610	413.366154	512.570485	-371.619346	307.314899	490.952841	-434.889616	NaN	NaN	NaN	-11.950790	84.578093	-453.609520	-20.354258	80.975026	-53.536275	
2	0.0100	501.428446	1350.061613	-123.059886	504.080885	1351.837697	-413.759890	438.700652	1396.673526	-260.484627	466.254036	1239.782756	-263.335743	586.272822	1078.732531	-45.990260	724.463138	852.993500	-71.485115	588.224523	1077.531116	-471.191752	724.513744	862.129554	-425.434711	-72.412745	1155.684016	-244.267137	103.350977	1152.317228	-416.793137	95.315582	1138.587177	-95.907785	93.477684	1099.731118	-395.086757	109.102270	1086.128296	-119.208989	-38.612994	1191.583483	-191.543778	-41.835499	1194.654290	-298.491924	15.564318	1025.264487	-61.332831	28.244140	1050.643877	-455.769404	78.205493	898.712751	-49.786221	121.870930	828.853895	-57.343719	163.305890	749.867306	-75.617465	169.175343	855.957585	-70.753743	194.101881	647.017853	-101.030433	132.827039	544.604126	-67.642991	109.156858	463.088600	-69.598325	73.863994	379.584687	-83.042651	154.978739	448.493941	-106.050143	27.405297	259.609712	-101.624345	71.885927	273.482551	-177.485931	-15.951048	227.027184	-158.620591	252.618572	197.812360	-131.269769	144.170017	170.832218	-67.402472	127.538552	980.505029	-464.150113	214.577560	977.648518	-465.611822	218.989981	1031.853043	-455.008809	299.728116	966.043545	-457.353537	400.616079	919.191523	-438.892839	326.306495	831.306123	-456.107210	285.803501	755.270742	-444.779092	244.681436	682.177391	-424.890817	337.703944	732.415454	-419.108595	189.066450	568.299711	-400.700401	137.083597	531.324481	-357.994796	413.343564	512.592963	-371.611738	307.304767	490.970883	-434.886632	NaN	NaN	NaN	-11.944011	84.598643	-453.616570	-20.343887	80.945555	-53.540328	
3	0.0150	501.434412	1350.089027	-123.048828	504.081624	1351.833557	-413.782800	438.698555	1396.687645	-260.482049	466.262960	1239.789543	-263.341748	586.284603	1078.739059	-46.021648	724.467115	852.982464	-71.494367	588.231880	1077.512840	-471.191527	724.510867	862.116321	-425.399981	-72.403569	1155.683906	-244.269658	103.408503	1152.230438	-416.889378	95.322491	1138.575628	-95.893934	93.479168	1099.702912	-395.086395	109.131502	1086.085531	-119.186533	-38.620525	1191.587794	-191.547990	-41.839957	1194.643119	-298.495980	15.561559	1025.271864	-61.317660	28.247339	1050.645073	-455.751890	78.209338	898.710149	-49.773151	121.878977	828.856863	-57.333572	163.297537	749.864593	-75.613270	169.181906	855.957352	-70.757779	194.125713	647.003417	-101.041415	132.849795	544.587837	-67.646651	109.163049	463.096342	-69.585130	73.871527	379.567156	-83.026985	154.981317	448.494566	-106.048991	27.410501	259.595910	-101.624953	71.925922	273.453429	-177.462936	-15.946087	227.008279	-158.620998	252.628375	197.817187	-131.259186	144.157092	170.837078	-67.406642	127.538353	980.518014	-464.146524	214.587952	977.648788	-465.612167	218.973500	1031.845921	-454.999625	299.728988	966.046779	-457.360041	400.597497	919.203722	-438.909332	326.304875	831.321647	-456.113484	285.798307	755.290499	-444.771536	244.684856	682.191884	-424.890536	337.703570	732.416452	-419.108967	189.053420	568.308821	-400.695548	137.069045	531.340559	-358.000293	413.334523	512.583933	-371.618698	307.300176	490.973857	-434.875935	NaN	NaN	NaN	-11.944535	84.616665	-453.621502	-20.332648	80.947612	-53.548518	
4	0.0200	501.462439	1350.092914	-123.065186	504.077426	1351.828877	-413.801902	438.366544	1396.720391	-260.070495	466.298772	1239.802204	-263.366804	586.595708	1078.708768	-46.222432	724.453836	852.994849	-71.481719	588.235735	1077.498940	-471.181626	724.510249	862.117727	-425.381883	-72.403027	1155.669748	-244.270589	103.391496	1152.188861	-416.915162	95.320888	1138.647840	-96.050244	93.474074	1099.679247	-395.077500	109.717494	1085.698954	-118.789545	-38.576611	1191.547890	-191.501309	-41.842489	1194.634147	-298.500658	15.514619	1025.161527	-61.317318	28.281086	1050.577574	-455.790504	78.276861	898.769196	-49.608087	121.900047	828.856718	-57.329293	163.296416	749.857507	-75.599641	169.237600	855.944563	-70.826343	193.795553	647.133588	-101.003866	132.848614	544.585150	-67.645601	109.174593	463.082301	-69.593711	75.362446	380.764857	-81.459740	154.989279	448.485574	-106.055159	27.315839	259.663657	-101.603002	72.025282	273.542468	-177.451980	-15.942737	227.013075	-158.626958	252.650828	197.815387	-131.269565	144.177169	170.814425	-67.414921	127.537357	980.531513	-464.142807	214.604080	977.656023	-465.611563	218.952961	1031.843607	-454.987661	299.729662	966.049940	-457.366919	400.604904	919.212434	-438.899077	326.299950	831.339050	-456.126479	286.652341	754.410613	-447.762605	244.870459	682.238589	-424.894007	338.012477	731.936761	-420.387486	189.037085	568.324606	-400.690542	137.051471	531.362953	-358.007599	413.331458	512.578644	-371.625947	307.294518	490.979547	-434.861881	-224.266974	893.820940	-250.060161	-11.939521	84.586740	-453.617073	-20.352905	80.955072	-53.537679	
5	0.0250	501.410031	1350.123742	-123.074789	504.135092	1352.078600	-413.813915	438.820282	1396.618735	-260.510128	466.319840	1239.775796	-263.335346	586.042794	1078.913401	-45.911993	724.517755	853.004702	-71.557063	588.592010	1077.690945	-470.972874	724.511758	862.132359	-425.379069	-72.238207	1155.550505	-244.163614	103.384428	1152.197170	-416.948829	95.325367	1138.632630	-96.041193	93.263987	1099.883029	-395.341620	109.754460	1085.676551	-118.759244	-38.576427	1191.448335	-191.496418	-41.844913	1194.622815	-298.503791	15.466390	1025.023039	-61.304638	27.989736	1050.646125	-455.957267	78.276968	898.743787	-49.614093	121.860973	828.794442	-57.263472	163.247037	749.799262	-75.553348	169.251906	855.939739	-70.805000	193.831390	647.122814	-101.062832	132.837692	544.560708	-67.748466	109.178796	463.071310	-69.600626	75.359022	380.756670	-81.452804	154.995183	448.462557	-106.060200	27.318188	259.642986	-101.717606	71.811382	273.342703	-177.324450	-16.019691	227.054121	-158.668676	252.638204	197.786285	-131.270279	144.183270	170.813339	-67.397142	127.534079	980.546022	-464.137740	214.625880	977.670141	-465.610012	218.928418	1031.846042	-454.972941	299.730143	966.053027	-457.374166	400.612717	919.280851	-438.831100	326.291764	831.358299	-456.146095	286.645360	754.414712	-447.775660	244.730384	682.346653	-424.937658	338.038016	731.933039	-420.434939	189.017499	568.346967	-400.685383	137.030927	531.391567	-358.016687	413.333693	512.576732	-371.633427	307.287822	490.987908	-434.844517	-224.316760	893.892355	-250.171058	-11.733874	84.856849	-453.793289	-20.401023	81.067404	-53.443728	
6	0.0300	501.391557	1350.121831	-123.070161	503.958600	1351.619515	-413.836199	438.789834	1396.643752	-260.523324	466.360888	1239.797403	-263.335181	586.046609	1078.941702	-45.936674	724.523454	853.016813	-71.561243	588.307893	1077.609918	-471.184822	724.515264	862.158809	-425.390194	-72.599317	1155.801062	-244.318200	103.354745	1152.156834	-417.003232	95.323272	1138.634186	-96.010457	93.497752	1099.301227	-394.780816	109.747575	1085.635023	-118.767447	-38.560143	1191.604140	-191.448236	-41.844545	1194.613549	-298.507099	15.609248	1025.239371	-61.304147	27.737444	1050.729499	-456.003832	78.285791	898.742975	-49.618763	121.909542	828.865517	-57.387804	163.312499	749.856167	-75.671548	169.262604	855.945758	-70.803192	193.815147	647.108501	-100.963537	132.837091	544.575954	-67.598036	109.175710	463.062639	-69.601955	75.337511	380.745933	-81.454952	154.988157	448.441772	-106.045973	27.266581	259.637202	-101.473609	71.931042	273.498757	-177.490646	-15.858978	226.871400	-158.587573	252.645766	197.789746	-131.252309	144.181198	170.801817	-67.399705	127.528497	980.562151	-464.132579	214.653290	977.691059	-465.607514	218.899928	1031.853168	-454.955486	299.730433	966.056040	-457.381775	400.631376	919.092298	-439.035656	326.280363	831.379363	-456.172230	286.562720	754.581553	-447.013758	245.036815	682.181792	-424.973415	338.046396	731.927284	-420.448726	188.994719	568.375803	-400.680072	137.007467	531.426305	-358.027531	413.340548	512.577837	-371.641081	307.280113	490.998893	-434.823885	-224.272459	893.704364	-249.961485	-13.305724	85.720562	-454.052042	-20.364459	80.819289	-53.732308	
7	0.0350	501.364426	1350.117612	-123.077097	503.920527	1351.573184	-413.838830	438.840493	1396.629203	-260.577291	466.373998	1239.793094	-263.292531	586.062493	1078.949173	-45.958843	724.529565	853.032958	-71.557136	588.285441	1077.601376	-471.160680	724.520634	862.195664	-425.413911	-72.616837	1155.812047	-244.328599	103.382557	1152.152450	-417.112721	95.321638	1138.630784	-95.999565	93.482303	1099.249160	-394.768598	109.766427	1085.603472	-118.738557	-38.557654	1191.606050	-191.424905	-41.841687	1194.606248	-298.510611	15.644177	1025.243961	-61.304168	27.523043	1050.821082	-455.959197	78.279621	898.737541	-49.605392	121.909666	828.868795	-57.394825	163.287528	749.841299	-75.684250	169.253024	855.944458	-70.774140	193.797089	647.106681	-100.939328	132.823891	544.567656	-67.591465	109.185049	463.059257	-69.603662	75.352060	380.729716	-81.456235	154.980346	448.423302	-106.052893	27.254680	259.623540	-101.452415	72.111117	273.539961	-177.478554	-15.845014	226.861502	-158.581103	252.648108	197.788118	-131.262388	144.201861	170.809139	-67.389204	127.520188	980.580418	-464.127770	214.686245	977.718695	-465.604071	218.867547	1031.864928	-454.935321	299.730537	966.058979	-457.389739	400.633091	919.063005	-439.062712	326.265789	831.402213	-456.204782	286.537109	754.605905	-446.915023	245.036792	682.181793	-424.973487	338.047212	731.917320	-420.432349	188.968801	568.411017	-400.674608	136.981143	531.467070	-358.040107	413.351346	512.581598	-371.648853	307.271418	491.012458	-434.800031	-224.269360	893.697465	-249.952957	-13.331792	85.681824	-454.050876	-20.335146	80.765568	-53.743234	
